<svg width="140" height="243" viewBox="0 0 140 243" fill="none" xmlns="http://www.w3.org/2000/svg">
<path opacity="0.27" fill-rule="evenodd" clip-rule="evenodd" d="M91.456 110.127C84.6657 108.099 77.6206 107.052 70.534 107.016C61.5037 106.991 52.5679 108.855 44.301 112.489C50.895 87.907 66.736 45.489 98.293 40.713C99.7341 40.4869 101.079 39.8479 102.164 38.8733C103.249 37.8988 104.029 36.6304 104.408 35.222L111.308 10.102C111.596 9.05295 111.66 7.95497 111.496 6.87952C111.332 5.80406 110.943 4.77523 110.355 3.85999C109.774 2.95387 109.005 2.18356 108.1 1.6015C107.195 1.01944 106.174 0.63931 105.109 0.487C102.77 0.163164 100.411 0.000448382 98.05 0C60.172 0 22.659 40.259 6.83003 97.9C-2.46197 131.718 -5.18596 182.562 17.702 214.565C30.51 232.472 49.196 242.035 73.241 242.99C73.341 242.99 73.436 242.996 73.534 242.996C103.203 242.996 129.511 222.65 137.514 193.523C142.312 176.244 140.124 157.771 131.424 142.09C127.188 134.399 121.477 127.617 114.62 122.133C107.762 116.648 99.8907 112.569 91.456 110.127Z" fill="#9EB6D2"/>
</svg>
